# Blender v2.79 (sub 0) OBJ File: 'Enemy.blend'
# www.blender.org
o Sphere
v 0.000000 0.943176 0.000000
v 0.084440 1.231471 -0.084440
v 0.119416 1.112055 -0.119416
v 0.084440 0.992640 -0.084440
v 0.119416 1.231471 0.000000
v 0.168879 1.112055 0.000000
v 0.119416 0.992640 0.000000
v 0.084440 1.231471 0.084440
v 0.119416 1.112055 0.119416
v 0.084440 0.992640 0.084440
v 0.000000 1.231471 0.119416
v 0.000000 1.112055 0.168879
v 0.000000 0.992640 0.119416
v 0.000000 1.280935 0.000000
v -0.084440 1.231471 0.084440
v -0.119416 1.112055 0.119416
v -0.084440 0.992640 0.084440
v -0.119416 1.231471 0.000000
v -0.168879 1.112055 0.000000
v -0.119416 0.992640 0.000000
v -0.084440 1.231471 -0.084440
v -0.119416 1.112055 -0.119416
v -0.084440 0.992640 -0.084440
v 0.000000 1.231471 -0.119416
v 0.000000 1.112055 -0.168879
v 0.000000 0.992640 -0.119416
vt 0.411764 0.388449
vt 0.505405 0.356787
vt 0.491077 0.401564
vt 0.377759 0.349733
vt 0.438094 0.390114
vt 0.361659 0.406518
vt 0.434487 0.388233
vt 0.423753 0.321216
vt 0.477802 0.340334
vt 0.367042 0.356787
vt 0.432027 0.325126
vt 0.388492 0.460190
vt 0.504635 0.394005
vt 0.366352 0.362471
vt 0.442697 0.416521
vt 0.363385 0.429636
vt 0.386615 0.515347
vt 0.442697 0.506074
vt 0.501747 0.429636
vt 0.484452 0.515347
vt 0.442540 0.479307
vt 0.488535 0.450791
vt 0.361659 0.511392
vt 0.438094 0.538428
vt 0.504635 0.498879
vt 0.438933 0.477426
vt 0.492143 0.452672
vt 0.508243 0.500760
vt 0.434487 0.536547
vt 0.384885 0.458309
vt 0.508243 0.395886
vt 0.501335 0.349262
vt 0.407695 0.380924
vt 0.427957 0.317600
vt 0.348645 0.457362
vt 0.348645 0.394038
vt 0.481409 0.342215
vt 0.358051 0.404637
vt 0.487007 0.457362
vt 0.407695 0.470476
vt 0.432027 0.541325
vt 0.491077 0.464887
vt 0.505405 0.509663
vt 0.427361 0.323097
vt 0.374151 0.347852
vt 0.427957 0.533800
vt 0.411764 0.478002
vt 0.352715 0.401564
vt 0.422435 0.353198
vt 0.358051 0.509511
vt 0.487007 0.394038
vt 0.501335 0.502138
vt 0.352715 0.464887
vn 0.0000 0.0000 -1.0000
vn 0.5293 -0.6630 -0.5293
vn 0.0000 -0.6630 -0.7486
vn 0.0000 0.6630 -0.7486
vn 0.0000 1.0000 0.0000
vn 0.5293 0.6630 -0.5293
vn 0.0000 -1.0000 0.0000
vn 0.7071 0.0000 -0.7071
vn 0.7486 0.6630 0.0000
vn 0.7486 -0.6630 0.0000
vn 1.0000 0.0000 0.0000
vn 0.7071 0.0000 0.7071
vn 0.5293 -0.6630 0.5293
vn 0.5293 0.6630 0.5293
vn 0.0000 -0.6630 0.7486
vn 0.0000 0.6630 0.7486
vn 0.0000 0.0000 1.0000
vn -0.5293 -0.6630 0.5293
vn -0.5293 0.6630 0.5293
vn -0.7071 0.0000 0.7071
vn -0.7486 -0.6630 0.0000
vn -0.7486 0.6630 0.0000
vn -1.0000 0.0000 0.0000
vn -0.5293 -0.6630 -0.5293
vn -0.5293 0.6630 -0.5293
vn -0.7071 0.0000 -0.7071
s 1
f 25/1/1 4/2/2 26/3/3
f 24/4/4 14/5/5 2/6/6
f 1/7/7 26/8/3 4/9/2
f 25/1/1 2/10/6 3/11/8
f 2/6/6 14/5/5 5/12/9
f 1/7/7 4/9/2 7/13/10
f 2/14/6 6/15/11 3/16/8
f 4/17/2 6/15/11 7/18/10
f 7/18/10 9/19/12 10/20/13
f 5/12/9 14/5/5 8/21/14
f 1/7/7 7/13/10 10/22/13
f 6/23/11 8/21/14 9/24/12
f 9/25/12 13/26/15 10/22/13
f 8/21/14 14/5/5 11/27/16
f 1/7/7 10/22/13 13/26/15
f 8/21/14 12/28/17 9/24/12
f 12/29/17 17/30/18 13/26/15
f 11/27/16 14/5/5 15/31/19
f 1/7/7 13/26/15 17/30/18
f 11/32/16 16/33/20 12/34/17
f 16/33/20 20/35/21 17/36/18
f 15/31/19 14/5/5 18/37/22
f 1/7/7 17/30/18 20/38/21
f 16/33/20 18/39/22 19/40/23
f 19/41/23 23/42/24 20/43/21
f 18/37/22 14/5/5 21/44/25
f 1/7/7 20/38/21 23/45/24
f 18/39/22 22/46/26 19/40/23
f 22/47/26 24/48/4 25/1/1
f 22/47/26 26/3/3 23/42/24
f 21/44/25 14/5/5 24/4/4
f 1/7/7 23/45/24 26/8/3
f 25/1/1 3/11/8 4/2/2
f 25/1/1 24/48/4 2/10/6
f 2/14/6 5/49/9 6/15/11
f 4/17/2 3/16/8 6/15/11
f 7/18/10 6/15/11 9/19/12
f 6/23/11 5/12/9 8/21/14
f 9/25/12 12/29/17 13/26/15
f 8/21/14 11/27/16 12/28/17
f 12/29/17 16/50/20 17/30/18
f 11/32/16 15/51/19 16/33/20
f 16/33/20 19/40/23 20/35/21
f 16/33/20 15/51/19 18/39/22
f 19/41/23 22/47/26 23/42/24
f 18/39/22 21/52/25 22/46/26
f 22/47/26 21/53/25 24/48/4
f 22/47/26 25/1/1 26/3/3
